<?xml version="1.0" standalone="no"?>
<!DOCTYPE svg PUBLIC "-//W3C//DTD SVG 20010904//EN"
 "http://www.w3.org/TR/2001/REC-SVG-20010904/DTD/svg10.dtd">
<svg version="1.0" xmlns="http://www.w3.org/2000/svg"
 width="700.000000pt" height="700.000000pt" viewBox="0 0 700.000000 700.000000"
 preserveAspectRatio="xMidYMid meet">
<metadata>
Created by potrace 1.14, written by Peter Selinger 2001-2017
</metadata>
<g transform="translate(0.000000,700.000000) scale(0.100000,-0.100000)"
fill="#000000" stroke="none">
<path d="M3278 6996 c-1 -2 -42 -6 -89 -10 -47 -4 -95 -8 -105 -10 -10 -2 -48
-7 -84 -12 -36 -4 -67 -8 -70 -9 -3 -1 -25 -5 -50 -9 -25 -4 -101 -21 -170
-38 -69 -16 -134 -31 -146 -34 -94 -18 -419 -142 -579 -220 -180 -87 -448
-247 -555 -331 -8 -6 -51 -40 -95 -74 -340 -264 -650 -624 -875 -1014 -47 -81
-170 -327 -170 -339 0 -3 -11 -29 -24 -58 -60 -133 -155 -432 -181 -569 -3
-13 -12 -58 -20 -99 -8 -41 -17 -89 -19 -105 -3 -17 -7 -46 -11 -66 -6 -40
-10 -75 -22 -199 -15 -164 -8 -598 12 -711 2 -13 7 -44 9 -69 26 -238 114
-567 225 -845 50 -123 163 -349 233 -463 35 -57 68 -111 73 -121 43 -73 239
-330 314 -411 242 -261 431 -425 687 -596 78 -52 145 -94 149 -94 5 0 16 -6
24 -14 26 -22 298 -158 408 -204 348 -144 709 -232 1063 -260 182 -14 591 -7
712 13 13 2 46 6 73 10 28 3 59 8 70 10 11 3 31 7 45 9 361 59 783 210 1104
395 49 28 91 51 93 51 10 0 268 180 353 247 151 118 324 281 450 422 36 41 70
79 76 85 65 68 263 353 352 508 46 79 172 331 172 342 0 3 11 29 24 58 57 127
151 421 182 573 16 77 54 301 60 350 4 33 9 76 11 95 8 72 10 518 2 602 -8 83
-17 171 -24 213 -1 11 -6 43 -10 70 -3 28 -8 58 -11 67 -5 18 -11 46 -20 93
-13 77 -67 272 -105 385 -380 1132 -1316 1999 -2464 2283 -77 19 -158 38 -180
43 -22 4 -42 8 -45 9 -3 0 -30 5 -60 9 -30 4 -64 10 -75 12 -11 2 -49 6 -85 9
-36 4 -76 9 -90 12 -27 5 -536 14 -542 9z m1341 -783 c299 -121 603 -312 846
-533 70 -64 211 -208 247 -253 l30 -37 -43 5 c-24 4 -80 8 -124 10 -70 4 -86
1 -133 -21 -89 -43 -123 -108 -137 -261 -3 -34 -7 -70 -10 -80 -2 -11 -6 -52
-10 -92 -3 -40 -8 -81 -10 -91 -2 -10 -6 -47 -10 -82 -3 -35 -8 -74 -10 -88
-2 -14 -7 -52 -10 -85 -5 -57 -11 -107 -20 -185 -3 -19 -9 -75 -15 -123 -19
-155 -2 -195 137 -323 54 -51 116 -109 139 -130 22 -22 103 -97 179 -169 77
-71 173 -162 215 -202 121 -115 143 -132 189 -148 101 -34 168 -11 277 97 45
44 84 76 86 72 10 -19 -6 -261 -27 -414 -14 -101 -17 -116 -44 -235 -69 -306
-205 -637 -364 -889 l-31 -49 -22 105 c-29 139 -52 181 -125 226 -54 33 -110
36 -234 13 -232 -43 -381 -70 -410 -76 -16 -3 -77 -14 -135 -25 -167 -30 -173
-31 -215 -40 -22 -5 -60 -11 -85 -15 -66 -9 -144 -48 -173 -86 -14 -19 -75
-135 -135 -259 -60 -124 -163 -333 -227 -465 -111 -225 -118 -244 -118 -300
-1 -110 42 -164 191 -241 l93 -48 -78 -23 c-43 -12 -135 -34 -204 -48 -122
-24 -163 -30 -259 -40 -25 -3 -67 -8 -93 -11 -61 -8 -405 -7 -474 0 -29 3 -77
8 -105 11 -29 3 -65 8 -80 10 -16 3 -43 7 -60 10 -18 3 -55 10 -83 15 -27 6
-60 12 -72 14 -36 7 -217 56 -221 60 -2 2 23 18 55 36 146 81 161 93 187 140
31 56 39 111 25 164 -6 21 -67 154 -136 295 -69 141 -170 347 -224 458 -99
203 -129 247 -188 277 -17 9 -138 37 -269 61 -279 53 -267 51 -312 58 -80 14
-96 17 -120 22 -14 3 -52 10 -85 16 -60 11 -101 19 -120 23 -5 1 -48 8 -95 15
-104 16 -148 7 -208 -45 -56 -47 -68 -73 -95 -200 l-23 -107 -31 49 c-100 159
-200 367 -270 563 -44 123 -96 311 -107 385 -4 21 -8 41 -10 45 -2 3 -7 29
-10 56 -11 78 -16 118 -21 145 -12 70 -25 350 -16 350 2 0 43 -37 90 -83 90
-86 130 -107 205 -107 42 0 95 20 133 50 23 18 171 156 394 368 42 40 85 80
96 90 11 9 75 68 142 131 171 162 182 189 156 386 -3 22 -7 63 -10 90 -11 100
-16 151 -20 175 -2 14 -6 52 -10 85 -3 33 -7 71 -10 85 -2 14 -7 52 -10 85 -7
81 -16 155 -20 185 -2 14 -7 50 -10 80 -4 30 -8 69 -10 86 -9 74 -58 144 -126
180 -37 19 -124 23 -237 11 l-63 -6 30 37 c66 81 199 211 357 347 87 75 289
214 399 275 145 81 421 207 431 197 3 -2 -16 -49 -41 -104 -35 -79 -45 -112
-45 -154 0 -60 26 -122 67 -161 38 -35 944 -487 997 -497 26 -5 60 -3 87 4 48
12 927 455 971 489 15 12 39 45 54 74 43 84 32 146 -52 315 -14 26 -21 47 -18
47 4 0 59 -21 123 -47z"/>
<path d="M3425 4648 c-28 -10 -99 -55 -135 -85 -8 -7 -100 -74 -205 -149 -104
-75 -212 -153 -240 -174 -27 -20 -133 -97 -234 -170 -190 -139 -223 -172 -239
-247 -12 -53 -9 -78 21 -171 62 -189 259 -798 293 -902 57 -179 78 -210 164
-249 44 -20 65 -20 640 -21 362 0 608 4 629 10 47 13 107 57 130 94 11 17 41
96 67 176 121 374 221 678 266 815 65 199 65 261 0 340 -14 17 -181 143 -371
282 -190 138 -350 256 -356 260 -5 5 -32 24 -60 43 -27 19 -52 37 -55 40 -11
12 -116 86 -140 99 -33 18 -138 23 -175 9z"/>
</g>
</svg>
